Coordinates
version=1
nRows=7
nColumns=40
inDegrees=yes

Units are S.I. units (second, meters, Newtons, ...)
Angles are in degrees.

endheader
time	pelvis_tilt	pelvis_list	pelvis_rotation	pelvis_tx	pelvis_ty	pelvis_tz	hip_flexion_r	hip_adduction_r	hip_rotation_r	knee_angle_r	knee_angle_r_beta	ankle_angle_r	subtalar_angle_r	mtp_angle_r	hip_flexion_l	hip_adduction_l	hip_rotation_l	knee_angle_l	knee_angle_l_beta	ankle_angle_l	subtalar_angle_l	mtp_angle_l	lumbar_extension	lumbar_bending	lumbar_rotation	arm_flex_r	arm_add_r	arm_rot_r	elbow_flex_r	pro_sup_r	wrist_flex_r	wrist_dev_r	arm_flex_l	arm_add_l	arm_rot_l	elbow_flex_l	pro_sup_l	wrist_flex_l	wrist_dev_l
      0.68000000	     -2.81289118	     -7.79153832	      2.22357648	      0.02692353	      0.92357607	      1.11033620	     26.63320090	      3.55319171	    -11.04316888	    -28.69022879	     -0.50073896	     -3.01871629	    -11.71533223	     -4.50201423	     -5.38454719	     17.16471435	     14.74313945	    -46.65243384	     -0.81423857	    -11.79585421	     10.84282162	    -10.45552006	      3.82468107	      6.53868296	     -9.85218223	    -11.58726761	    -11.84770365	    -27.05021188	      9.54283134	     89.95437384	      0.00000000	      0.00000000	      4.00413024	     14.27495199	     -5.22196055	     62.50393682	     89.95437384	      0.00000000	      0.00000000
      0.69000000	     -2.46706454	     -8.34122112	      2.23584668	      0.04089952	      0.92632130	      1.11320257	     25.00685501	      4.64518425	    -10.50659860	    -28.25777403	     -0.49319120	     -1.64335990	    -11.82102749	     -4.44942495	     -3.70190067	     17.86667316	     14.01745049	    -49.71443833	     -0.86768063	    -10.15478958	     12.91532767	    -10.36816493	      3.52289030	      7.04193281	     -9.29414366	    -10.94667320	    -11.87891494	    -26.98982631	      9.53337866	     89.95437384	      0.00000000	      0.00000000	      3.74560042	     13.90761676	     -5.04188319	     60.78919998	     89.95437384	      0.00000000	      0.00000000
      0.70000000	     -2.44087754	     -8.72970904	      2.36808069	      0.05421087	      0.92893203	      1.11552909	     23.68415745	      5.38903173	    -10.29628753	    -27.58070069	     -0.48137404	     -0.93983681	    -11.78822525	     -4.24013038	     -1.45989001	     18.32119597	     13.15859234	    -52.60620258	     -0.91815144	     -8.39833037	     14.83691369	    -10.16787083	      3.52631897	      7.35562759	     -8.86735814	    -10.35444744	    -11.86054255	    -27.14032275	      9.81837141	     89.95437384	      0.00000000	      0.00000000	      3.52767155	     13.49923376	     -4.84593046	     58.75683234	     89.95437384	      0.00000000	      0.00000000
      0.71000000	     -3.12054975	     -8.90979085	      2.66477527	      0.06617398	      0.93054923	      1.11726633	     23.33661349	      5.70127939	    -10.53155750	    -27.15211461	     -0.47389380	      0.40979073	    -12.03890144	      2.98309654	      2.12503333	     18.31472154	     11.67535284	    -55.93501615	     -0.97625020	     -4.37161280	     15.73080953	      2.26192657	      4.19520114	      7.41933687	     -8.52775334	     -9.61822384	    -11.69969445	    -29.06831760	     10.01475259	     89.95437384	      0.00000000	      0.00000000	      3.38782664	     13.13431978	     -4.78604293	     56.59512207	     89.95437384	      0.00000000	      0.00000000
      0.72000000	     -2.92466974	     -8.72523526	      2.96026773	      0.07870087	      0.93380191	      1.11846110	     21.81881858	      5.66875486	    -10.56321964	    -26.42386375	     -0.46118342	      1.11132714	    -11.71920777	      2.84502035	      4.18305429	     17.71375319	     10.49001508	    -57.92167789	     -1.01092399	     -3.07044173	     16.79280739	      2.11463642	      3.86532108	      7.12539685	     -8.08619433	     -8.87958489	    -11.63015188	    -28.69372058	     10.28195610	     89.95437384	      0.00000000	      0.00000000	      3.40001365	     12.76528514	     -4.62597456	     54.14790455	     89.95437384	      0.00000000	      0.00000000
      0.73000000	     -3.16187397	     -8.49434366	      3.77279337	      0.09055917	      0.93624934	      1.11866627	     20.83678431	      5.19258949	    -11.71298562	    -25.74253336	     -0.44929197	      1.55948450	    -10.99541550	      2.65451138	      7.14227864	     16.81169783	      8.57858946	    -59.97325382	     -1.04673074	     -1.59262338	     17.54386274	      2.73309420	      4.02936402	      6.69601678	     -8.21081644	     -8.19775095	    -11.54095496	    -28.54403642	     10.84790463	     89.95437384	      0.00000000	      0.00000000	      3.29913363	     12.43794746	     -4.36311818	     51.73448649	     89.95437384	      0.00000000	      0.00000000
      0.74000000	     -3.01924505	     -7.96080789	      4.20937764	      0.10253519	      0.93953665	      1.11918760	     19.24495957	      4.72932281	    -11.91882409	    -24.73881211	     -0.43177372	      2.10639299	    -10.65486836	      2.50092940	      9.19886724	     15.57240322	      7.49212994	    -61.27042211	     -1.06937060	     -0.14705716	     17.84908908	      2.73279753	      3.65756739	      6.00464504	     -7.81305068	     -7.40167359	    -11.45017764	    -28.34102166	     11.27727733	     89.95437384	      0.00000000	      0.00000000	      3.37961320	     12.18745551	     -4.20652689	     49.14317949	     89.95437384	      0.00000000	      0.00000000
